<svg xmlns="http://www.w3.org/2000/svg" fill="none" viewBox="0 0 1170 373">
  <path fill="#9DCFEA" fill-opacity=".07" d="M1088.52 90.653c26.5-19.622 81.48-.827 81.48 32.147V341c0 17.673-14.33 32-32 32H32c-17.673 0-32-14.327-32-32V197.733c0-20.845 25.215-33.16 43.644-23.418 53.094 27.985 119.32 39.205 181.832 30.786 65.51-8.808 123.744-37.597 182.692-62.33 58.947-24.733 124.14-46.362 189.928-39.066 52.711 5.848 99.444 29.594 149.708 43.708 83.69 23.496 178.756 19.167 258.656-11.779 29.93-11.59 57.59-26.864 82.06-44.98Z"/>
  <path fill="#fff" fill-opacity=".05" d="M1135.64 118.324c18.58.121 34.36 14.737 34.36 33.315v188.279c0 17.674-14.33 32-32 32H32c-17.673 0-32-14.326-32-32V219.402c0-19.797 17.894-34.699 37.688-35.069a204.546 204.546 0 0 0 21.093-1.484c52.852-6.636 98.526-29.196 144.684-48.714 46.157-19.518 98.293-36.965 151.45-31.711 89.097 8.802 155.969 78.689 245.445 72.141 61.778-4.528 105.526-44.143 161.051-63.974 63.871-22.818 139.823-18.182 210.11-9.078 54.359 7.037 109.329 16.454 164.119 16.811Z"/>
  <path fill="#fff" fill-opacity=".03" d="M1121.5 214.117c22.78-7.584 48.5 8.224 48.5 32.233v93.245c0 17.673-14.33 32-32 32H32c-17.673 0-32-14.327-32-32V194.79c0-7.707 2.7-15.236 8.133-20.703 20.506-20.641 46.843-37.205 76.465-47.431 52.282-18.022 113.86-15.9 164.207 5.655 50.543 21.641 87.692 60.476 135.942 85.54 68.49 35.577 158.496 39.938 231.401 11.21 40.642-16.013 76.819-41.695 120.963-48.558 68.832-10.696 133.649 26.627 200.913 42.906 60.216 14.576 125.326 10.071 183.476-9.292Z"/>
  <path fill="#fff" fill-opacity=".01" d="M1146.37 264.376c13.08.633 23.63 11.236 23.63 24.333V341c0 17.673-14.33 32-32 32H32c-17.673 0-32-14.327-32-32v-58.127c0-13.521 8.464-25.761 21.633-28.821 36.051-8.377 79.743-9.506 119.274-6.203 62.116 5.192 121.572 18.802 184.297 20.835 145.038 4.704 275.761-52.443 420.982-55.046 68.786-1.233 136.105 9.924 201.206 22.029 65.098 12.106 130.428 25.406 198.978 28.709Z"/>
</svg>