<svg xmlns="http://www.w3.org/2000/svg" fill="none" viewBox="0 0 24 24">
  <path stroke="#6c6c81" stroke-linecap="round" stroke-linejoin="round" stroke-width="1.199" d="M4 7a2 2 0 0 1 2-2h12a2 2 0 0 1 2 2v12a2 2 0 0 1-2 2H6a2 2 0 0 1-2-2Zm12-4v4M8 3v4m-4 4h16" transform="matrix(1.2525 0 0 1.2501 -3.03 -3.001)"/>
  <path stroke="#6c6c81" stroke-linecap="round" stroke-linejoin="round" stroke-width="1.199" d="M10.316 16a1.685 1.685 0 0 0 2.874 1.191 1.685 1.685 0 0 0-2.38-2.382A1.685 1.685 0 0 0 10.315 16z" transform="matrix(1.2525 0 0 1.2501 -3.03 -3.001)"/>
</svg>