<svg xmlns="http://www.w3.org/2000/svg" fill="none" viewBox="0 0 24 24">
  <path fill="#10b981" d="M12 0C5.373 0 0 5.373 0 12s5.373 12 12 12 12-5.373 12-12S18.627 0 12 0zm0 4.215 7.101 4.428H4.898zm7.19 11.499a1.286 1.286 0 0 1-1.287 1.285H6.097a1.286 1.286 0 0 1-1.286-1.285V8.925c0-.075.008-.15.021-.22l6.784 4.23c.009.006.017.008.026.013a.713.713 0 0 0 .175.072l.015.004a.746.746 0 0 0 .168.021h.001a.754.754 0 0 0 .168-.021l.016-.004a.72.72 0 0 0 .174-.072l.026-.013 6.784-4.23c.013.07.021.144.021.22z"/>
</svg>