<svg xmlns="http://www.w3.org/2000/svg" xml:space="preserve" viewBox="0 0 24 24">
  <path fill="gray" d="M15.365 16.628c-.18 0-.359-.003-.537-.013-1.313-.063-2.232-.333-3.207-.618-.76-.223-1.544-.453-2.635-.623a18.106 18.106 0 0 0-5.463 0 .923.923 0 0 1-1.061-.912V2.154a.923.923 0 0 1 .786-.913 19.932 19.932 0 0 1 6.025 0c1.207.19 2.09.447 2.868.675.903.265 1.683.493 2.776.546 1.229.059 2.525-.128 3.826-.56a2.094 2.094 0 0 1 1.899.3c.562.407.897 1.063.897 1.756v8.823a3.398 3.398 0 0 1-2.405 3.243 12.55 12.55 0 0 1-3.769.602zM6.29 13.321c1.007 0 2.004.076 2.984.229 1.207.19 2.09.447 2.868.676.903.264 1.683.492 2.776.545 1.176.057 2.415-.113 3.664-.506a1.56 1.56 0 0 0 1.113-1.483V3.96a.316.316 0 0 0-.134-.26.255.255 0 0 0-.238-.042c-1.517.5-3.026.718-4.492.649-1.312-.063-2.231-.333-3.206-.618-.76-.223-1.545-.453-2.635-.623a17.93 17.93 0 0 0-4.679-.1v10.451a20.237 20.237 0 0 1 1.98-.097z" data-original="#549bff"/>
  <path fill="gray" d="M3.386 24a.923.923 0 0 1-.923-.922V.923a.923.923 0 0 1 1.846 0v22.155a.923.923 0 0 1-.923.923z" data-original="#112d55"/>
</svg>
