<svg xmlns="http://www.w3.org/2000/svg" fill="none" viewBox="0 0 397 350">
  <g filter="url(#a)">
    <g filter="url(#b)">
      <path fill="url(#c)" d="M236.05 327a42 42 0 0 0-83.64 0h83.64Z" style="mix-blend-mode:multiply"/>
      <path fill="url(#d)" d="M339.77 43.59c3.98-7.75 14.35-13.25 26.52-13.25s22.53 5.51 26.5 13.26l-53.02-.01Z"/>
      <path fill="url(#e)" d="M314.67 43.59c3.06-4.46 9.45-7.53 16.85-7.53 7.4 0 13.79 3.08 16.85 7.53h-33.7Z"/>
      <path fill="#fff" d="M91.38 5.23C92.95 2.18 97.03 0 101.84 0c4.8 0 8.88 2.18 10.45 5.23h-20.9ZM85.7 15.34c1.2-1.76 3.72-2.97 6.64-2.97 2.9 0 5.44 1.21 6.64 2.97H85.7Z"/>
      <path fill="url(#f)" d="m251.23 221.32-117.1-.03a5.96 5.96 0 0 0-5.96 5.93v44.66a5.96 5.96 0 0 0 5.97 5.93h21.49l11.07 19.25 51.9.03 11.13-19.24h21.49a5.95 5.95 0 0 0 5.95-5.95l.02-44.61a5.97 5.97 0 0 0-5.96-5.97Z"/>
      <path fill="url(#g)" d="M134.13 277.81h21.5l.24.44c5.35-.56 10.72-.83 16.1-.84h81.43a5.94 5.94 0 0 0 3.77-5.51l.02-44.61a5.96 5.96 0 0 0-5.95-5.97l-117.1-.03a5.96 5.96 0 0 0-5.97 5.93v44.66a5.96 5.96 0 0 0 5.97 5.93Z"/>
      <path fill="url(#h)" d="M216.95 51.2a20.7 20.7 0 1 1 0-41.41 20.7 20.7 0 0 1 0 41.4Zm0-37.27a16.56 16.56 0 1 0 .02 33.12 16.56 16.56 0 0 0-.02-33.12Z"/>
      <path fill="url(#i)" d="M164.2 51.2a20.7 20.7 0 1 1 0-41.42 20.7 20.7 0 0 1 0 41.41Zm0-37.27a16.56 16.56 0 1 0-.02 33.11 16.56 16.56 0 0 0 .02-33.11Z"/>
      <path fill="url(#j)" d="M190.6 51.2a20.7 20.7 0 1 1 0-41.42 20.7 20.7 0 0 1 0 41.41Zm0-37.27a16.56 16.56 0 1 0 0 33.12 16.56 16.56 0 0 0 0-33.12Z"/>
      <path fill="url(#k)" d="m254.43 32.18-20.47 185.66h5.2l20.74-188.1.34-3.02-24.76 1.18.24 5.18 18.71-.9Z"/>
      <path fill="url(#l)" d="M147.2 217.84 126.74 32.18l18.7.9.25-5.18-24.76-1.18L142 217.84h5.2Z"/>
      <path fill="url(#m)" d="M273.45 182.89c-9.64-2.82-15.82-8.22-21.5-13.9.87-15.8 6.66-28.1 8.81-43.58.55-7.78-8.69-19.81-14.83-6.77-4.85 12.61-6.68 61.36-6.53 61.43 12.2 4.02 14.59 5 32.36 8 1.19-3.13 2.22-5.03 1.7-5.18Z"/>
      <path fill="url(#n)" fill-rule="evenodd" d="M51.48 123c-4.89-5.01-12.98-8.28-22.13-8.28-11.64 0-21.54 5.27-25.35 12.7H94.61c-1.83-2.68-5.65-4.51-10.08-4.51-3.02 0-5.77.86-7.78 2.26-3.29-3.02-8.4-4.96-14.14-4.96-4.2 0-8.07 1.04-11.13 2.78Z" clip-rule="evenodd"/>
      <path fill="#E3AD91" d="M267.27 72.49c-6.19 2.95-9.7 2.6-16.16 3.41-.68.08-8.07 5.4-8.73 5.35l.94 9.67-.28 11.88 1.03 6.62 9.88 4.32s.82-13.5 2-13.02c1.17.49 11.43 6.69 11.29 3.9-.14-2.77 1.24-32.7.03-32.13Z"/>
      <path fill="#E3AD91" d="M262.5 80.75c-1.78 2.43-.94 4.7.47 7.14.71 1.14 1.3 2.36 1.77 3.62.47 1.41.8-.27 1.58-.47-.66.17-1.31.36-1.97.58-1.88.6-2.98 3.12-.18 2.2 1.57-.5 7.11 1.56 5.13-2.28-.66-1.28-1.7-4.88-1.5-6.27.29-1.88-3.25-2.82-1.92-4.66 1.41-1.92-2.64-.88-3.37.14"/>
      <path fill="#E3AD91" d="M267.1 101.65c0 .09-.34 2.95-.33 3.05-1.54-.6-2.79-3.76-4.46-4-.13-2.32-.28-4.64-.4-6.96 1.65.16 2.08-1.64 3.72-1.92-1.01-2.3 1.17 1.83 1.14 1.88-.4.54.94 1.85 1.35 2.4.4.53-.38.7-.78 1.37-.4.68.83 1.48.83 1.89 0 .4-1.2.94-1.07 2.29Z"/>
      <path fill="#1F3465" d="M245.72 86.33c.6-3.25 3.73-3.73 4.7-.75 0 0 .23 2.6.06 3.33 1.15-1.73 2.96-3.69 4.78-4.68a16.68 16.68 0 0 0 2.95-5.14s9.24-.62 9.85-.94c.62-.31 5.12-4.23 5.05-5.38 0 0-3.2 2.13-4.24 1.66l1.91-2.03s-16.63-4.85-17.4-5.13c-.79-.28-10.11 2.82-11.77 4.2-1.66 1.39-2.02 8.1-.76 12.12.65 2.08 2.4 13.56 2.2 14.12-.26.76 3.59-3.5 4.63-6.06.17-.37-2.55-2.07-1.96-5.32Z"/>
      <path fill="#1F3465" d="m250.56 89.32-.56-.64.07-4.86 2.41-2.12-1.92 7.62Z"/>
      <path fill="#BEE5EB" d="M267.5 97.25c-.87.52-1.8.9-2.77 1.14 0 0 .91.3 2.72-.17.03-.32.05-.64.04-.97ZM255.68 100.92c-.4.6-.37.68-.37.68s-3.83-3.67-4.33-5.13-.43-5.5-.43-5.5.66 4.3 1.72 5.69a75.37 75.37 0 0 0 3.56 4.05l-.15.2Z"/>
      <path fill="url(#o)" d="m253.34 107.94 1.13-1.45c-.54 2.97-4.61 5.4-7.33 7.57-.7-3.4-2.73-9.15-4.02-12.53-6.34 24.94-37.57 94.63-37.79 96.82l22.59 4.83c.11-.39 5.56-1.26 5.5-1.67-.34-2.02-1.4-14.8 6.2-35.05 18.2-41.25 17.58-54.8 13.72-58.53Z"/>
      <path fill="url(#p)" d="M284.8 222.72c8.27-14.17 19.08 23.52 20.38 16.99 0 0-8.57 5.64-9.06 5.82-.5.18-56.94 42.7-58.52 42.5-1.58-.19-5.08-6.37-5.08-6.37s40.1-46.93 41.08-47.32c.98-.38 10.82-10.97 11.2-11.62Z"/>
      <path fill="url(#q)" d="M316.95 206.46c0-8.18-6.88-14.8-15.37-14.8h-86.55c-8.47 0-15.37 6.63-15.37 14.8 0 8.17 6.88 14.8 15.37 14.8h77.93c2.23 16.47 11.53 76.88 11.53 76.88s6.69.72 7.8-.44c1.12-1.16 4.66-89.73 4.66-91.24Z"/>
      <path fill="url(#r)" d="m186.98 208.97 14.74-44.53c8.36-22.93 4.05-31.47 6.93-40.77 7.87-6.58 16-14.89 6.93-21.95 5.13.4 20.8-3.43 27.35-.7.63 1.61 9.12 13.58-16.84 59.67-5.62 15.31-14.47 39.57-14.47 39.57l-24.64 8.71Z"/>
      <path fill="#16244C" d="m303.9 295.09 5.83-.1h3.59c2.49 1.6 6.27 2.05 9.23 2.65 2.95.6 4.23.65 7.53 1.38a.64.64 0 0 1 .57.41.64.64 0 0 1-.16.69c-1.38 1.88-4.86 1.85-6.98 1.91-2.12.06-6.4-.31-8.5-.42-4.7-.23-7.12-1.12-7.74-.29-.4.56-5.32.16-5.09-.86.58-2.58 1.52-4.06 1.72-5.37Z"/>
      <g opacity=".39" style="mix-blend-mode:multiply">
        <path fill="url(#s)" d="M314.26 336.5c-.8-16.03-1.56-29-1.96-29.43-1.12-1.16-7.81-.44-7.81-.44s-2.11 13.72-4.57 29.87h14.34Z"/>
        <path fill="#16244C" d="m303.9 309.67 5.83.1h3.59c2.49-1.62 4.75-1.17 7.71-1.78 2.96-.6 5.73-.8 9.04-1.54a.63.63 0 0 0 .42-1.1c-1.39-1.87-4.87-1.85-6.99-1.9-2.11-.07-9.15-.1-12-.4-3.35-.36-3.08.1-3.63-.25-.22-.14-.3-.7-.6-.74-1.7-.23-5.17-.75-4.95.26.58 2.59 1.38 6.03 1.58 7.35Z"/>
      </g>
      <path fill="#16244C" d="m234.62 278.56 4.93 3.9 2.89 2.3c1.05 2.96 3.83 5.75 5.85 8.15 2.02 2.4 3 3.24 5.24 5.98a.7.7 0 0 1-.33 1.2c-2.22.73-5-1.51-6.73-2.82-1.74-1.3-4.97-4.35-6.6-5.77-3.65-3.21-5.05-5.5-6.04-5.18-.66.23-4.38-3.26-3.59-3.98 2-1.83 3.44-2.78 4.38-3.78Z"/>
      <g opacity=".38" style="mix-blend-mode:multiply">
        <path fill="url(#t)" d="M269.5 338.72c-15.33-11.36-32-25.79-32.87-25.69-1.59.2-5.08 6.37-5.08 6.37a226.54 226.54 0 0 0 14.66 19.3l23.3.02Z"/>
        <path fill="#16244C" d="m233.65 322.5 4.95-3.9c.03 0 2.86-2.27 2.88-2.3 1.06-2.96 3.84-5.75 5.86-8.15 2.02-2.4 3-3.24 5.24-5.98a.69.69 0 0 0 .2-.7.7.7 0 0 0-.53-.5c-2.22-.73-5 1.51-6.74 2.82-1.74 1.31-4.96 4.35-6.59 5.78-3.66 3.2-5.06 5.5-6.04 5.17-.67-.22-4.38 3.27-3.6 3.98 2 1.84 3.44 2.78 4.37 3.79Z"/>
      </g>
      <path fill="url(#u)" d="m255.33 112.21-.58-5.17-.2-1.11c-.3.73-.7 1.4-1.2 2l-6 5.96s-2.29-12.39-5.22-14.08c0 0-.6 2.19-1.81 2.53-1.2.35-2.27.35-1.53.47.74.13 2.82 1.2 3.37.44.55-.76 3.48 3.9 4.55 12.6l6.72-6.87 1.81 4.16 1.64-.56-1.55-.37Z"/>
      <path fill="url(#v)" d="M251.2 111.01s-1.26-2.03-2.4-2.03c-1.13 0-3.16 2.12-3.16 2.12l1.54 5.56s-8.75 14.27-22.7 26.14a94.73 94.73 0 0 1-12.32 8.82l-1.37 9.85 7.18 1.15s10.94-7.92 15.65-14.31c11.93-16.2 15.59-30.72 15.43-30.91-.23-.29 3.4-4.64 2.13-6.4"/>
      <path fill="url(#w)" fill-rule="evenodd" d="M329.9 144.97c-.2-.12-1.71 1.09-1.93 1.03l-25.18 42.68h3.42c.35-.5.67-1 .97-1.54l23.21-39.68c.53-.9.56-1.88-.48-2.5Z" clip-rule="evenodd"/>
      <path fill="#1F3465" fill-rule="evenodd" d="M256.48 188.71c-.06.22-.1 1.82-.1 2.06 0 1.25.84 1.73 1.85 1.73h44.33c1.02 0 1.84-.47 1.84-1.73 0-.24-.03-1.84-.08-2.06h-47.84ZM304.38 188.66c.1.54 1.48 1.39 1.69 1.5 1.07.63 1.93.12 2.47-.81l23.85-40.77c.54-.94.57-1.93-.5-2.56-.2-.12-1.62-.9-1.77-1.35l-25.74 43.99Z" clip-rule="evenodd"/>
      <path fill="#E3AD91" d="m293.78 188 1.18-.76-.73-.38-7.42-2.48s-2.14-1.56-3.04-1.19l-8.06.55s-3.05-.67-4.71-1.24c-.04 0-.29-.12-.63 1.37l-.5 4.57s22.78.47 23.9-.43Z"/>
      <path fill="url(#x)" d="M272.84 182.16c-8.05.1-23.48.3-31.15-7.97-3.06-3.3-11.36-50.38-16.44-66.9-3.07-8.05-19-8.57-19.07 7.38 1.02 14.9 23 73.3 23.19 73.3 2.08 3.46 32.6.36 42.63.6l.84-6.41Z"/>
      <g fill="#fff" opacity=".2" style="mix-blend-mode:screen">
        <path d="M279.06 147.55c0 65.54-53.13 118.69-118.67 118.69-65.54 0-118.7-53.15-118.7-118.7C41.69 82 94.83 28.89 160.37 28.89c65.55 0 118.7 53.13 118.7 118.67Z" opacity=".3"/>
        <path d="M225.46 147.55a65.08 65.08 0 1 1-130.17 0 65.08 65.08 0 0 1 130.17 0Z"/>
      </g>
      <path fill="url(#y)" d="m141.97 189.85-3.63-3.35c2.77-1.56 2.7-2.53 2.43-4.85-1.33-14.02-10.2-30.45-12.66-44.14-.77-6.9 7.02-17.92 12.95-6.54 4.76 11.03 8.12 54.32 8 54.4a28 28 0 0 1-7.09 4.48Z"/>
      <path fill="#E6AF92" d="M136.43 109.2c0-.21-.05-.4-.08-.6.22-1.44.13-2.91-.28-4.32-.68-2.35-1.5-4.7-2.03-7.08-.47-2.06-2.55-3.96-4.35-4.84-.25-.12-.5-.22-.75-.32a23.5 23.5 0 0 1 2.35-4.18c.94-.47 9.56-3.43 13.67.5-.14 1.27-.08 2.55.16 3.8.74 3.83 4.8-1.31 5.63 2.5.4 1.88 2.93 1.2 3.32 3.12.2.94-4.55 8.74-3.38 11.5-.11-.58 4.05 5.34 4.1 5.6.54 3.12-3.2 13.95-2.82 17.16-1.88 3.17-5.85-.09-6.02-.53-.25-.64-1.96.6-1.72-5.8.23-6.17-2.1-15.3-4.01-13.18-1.9 2.11-4.33.84-5.9.47 2.06-1.76 2.33-.97 2.1-3.8Z"/>
      <path fill="#E6AF92" d="M129.32 101.34c.64-1.45.59-2.97 0-5.1-.33-1.15-1.35-4.84-.82-7.08 6.46-2.26 7.3-.55 9.65 4.74 1.23 2.8 5.79 17.56 5.64 17.69-.37.16-7.82 5.67-10.2 4.41-.32-.17-.6-4.3-1.48-4.5-.87-.18-.96-.66-.9-1.33.07-.67.23-.54-.44-.74-.68-.2-.34-.77-.47-1.89-.14-1.11-1.55-1.26-2.86-1.97-1.3-.7 0-.02 1.88-4.23Z"/>
      <path fill="#BEE5EB" d="M130.56 109.25c1.01.14 2.04.13 3.05-.04 0 0-.74.65-2.63.94-.16-.29-.3-.6-.42-.9ZM141.83 113.13c.37.54.34.6.34.6s2.02-.2 3.95-2.9c.72-1 1.24-5 1.24-5s-.99 3.23-1.93 4.36a8.9 8.9 0 0 1-3.74 2.75l.14.19Z"/>
      <path fill="#203365" fill-rule="evenodd" d="M133.85 85.74c7.87-8.03 16.22.94 19.91 9.33-.3.65-.5 1.34-.61 2.05-.22 1.94-22.95-3.1-24.25-7.72-1.64.2-2.44 1.14-2.4 2.82-1.97-3.54 2.9-6.43 7.35-6.48Z" clip-rule="evenodd"/>
      <path fill="url(#z)" d="m175.07 202.88-35.8-6.26c10.76-10.6 7.52-24.36 6.14-27.96-5.75-14.87-15.76-34.75-13.59-39.57 2.25-4.98 6.43-3.97 11.2-6.06.14 3.29 4.09 7.48 6.7 10.23 1.34-3.73 3.64-12.56 5.52-15.92 9.88 5.5 12.7 4.58 21.92 7.36 5.52 1.67 8.4.08 1.94 29.17-5.16 24.07-6.42 27.51-4.03 49.01Z"/>
      <path fill="url(#A)" d="m155.69 170.45-1.05.11c-2.3-14.67-11.44-41.62-11.6-47.33l.38.11c1.21 3.2 1.72 4.28 5.71 9.88 2.78-9.16 5.34-11.98 7.25-15.44 2.31 21.14-4.12 25.38-.7 52.67Z"/>
      <path fill="url(#B)" d="m141.7 128.54 1.33-5.5.83-1.95c.15.8.42 1.58.81 2.3.55.88 4.2 8 4.2 8s4.04-13.06 7.06-14.51c0 0 .22 2.44 1.3 2.97 1.07.53 2.05.67 1.35.72-.71.05-2.83.94-3.21.03-.39-.91-3.84 3.76-6.17 13.02l-5.22-8.3-2.32 4.23-1.45-.81 1.5-.2Z"/>
      <path fill="#203365" d="M149.12 80.47c12.02 5.2 13.92 20.8 14.22 24.27.14 14.7-12.86 22.79-19.96 19.3 9.27-10.48 5.3-18.97 5.3-18.97 2.81.57 2.81-3.63 1.64-6.59-1.18-2.96-2.08.9-2.08.9-.07 1.18-1.56.7-1.56.7-.39-2.46-2.62-7.56-6.85-9.04-3.18-1.12.4-1.74-1.77-3.77-2.17-2.02-6.2-1.16-6.2-1.16.76-3.31 9.51-9 17.26-5.64Z"/>
      <path fill="#203365" fill-rule="evenodd" d="M103.5 309.41c-3.92.29-2.67-4.37-2.86-7.66-2.85.74-4.65 4.4-8.2 6.3-2.04 1.03-12.22 2.06-13.9-1.84 7.07-1.15 8.39-.92 9.54-1.72 7.73-3.36 10.99-10.51 16.43-16.05 10.16 4.93-1.52 12.46-1.01 20.97Z" clip-rule="evenodd"/>
      <path fill="url(#C)" d="M87.29 303.35c5.58-6.43 8.24-14.46 7.72-19.3h7.13c0 .94 2.39 4.37 2.39 4.37s-7.57 10.17-13.27 14.93c-3.7 3.07-6 1.8-6 1.8s.45-.01 2.03-1.8Z"/>
      <path fill="#203365" fill-rule="evenodd" d="M179.3 283.5c-2.43 3.06-5.01-1-7.55-3.1-1.41 2.6.08 6.41-.94 10.3-.62 2.2-6.76 10.35-10.76 8.97 3.94-5.97 5-6.79 5.2-8.18 2.77-7.95-.28-15.2-.66-22.96 10.48-4.12 8.13 9.58 14.72 14.96Z" clip-rule="evenodd"/>
      <path fill="url(#D)" d="M163.85 291.3c-.94-8.47-5.03-15.85-8.94-18.74l4.83-5.23c.7.67 4.83 1.2 4.83 1.2s2.35 12.47 1.98 19.88c-.24 4.8-2.74 5.65-2.74 5.65s.3-.37.04-2.76Z"/>
      <path fill="url(#E)" d="M118.78 220.29c-8.08-13.02-14.93 25.75-16.2 19.76 0 0 8.36 5.18 8.84 5.35.47.18 43.35 28.93 44.91 28.75 1.56-.18 4.96-5.85 4.96-5.85s-26.95-32.8-27.91-33.19c-.96-.38-14.24-14.23-14.6-14.82Z"/>
      <path fill="url(#F)" d="M177.62 206.13c-1-2.88-6.39-8.9-6.43-11.02l-67.14-.47c-8.27 0-14.99 3.67-14.99 11.19 0 1.14 4.4 59.76 5.81 80.06l7.53.55c2.57-15.84 9.75-55.39 11.42-67l49.96 2.5c8.28 0 15-3.61 15-11.12a9.52 9.52 0 0 0-1.16-4.7Z"/>
      <path fill="url(#G)" fill-rule="evenodd" d="M75.32 150.38c.18-.1 1.62 1.03 1.81.98l23.7 40.17h-3.2a15.8 15.8 0 0 1-.93-1.45l-21.84-37.34c-.48-.87-.52-1.78.46-2.36Z" clip-rule="evenodd"/>
      <path fill="#1E3565" fill-rule="evenodd" d="M144.43 191.56c.05.2.08 1.7.08 1.94 0 1.17-.77 1.62-1.73 1.62h-41.72c-.94 0-1.73-.47-1.73-1.63 0-.22 0-1.74.08-1.93h45.02ZM99.35 191.5c-.1.52-1.39 1.3-1.59 1.42-1.01.58-1.81.1-2.33-.78L73 153.78c-.51-.88-.54-1.82.47-2.41.2-.12 1.51-.86 1.67-1.27l24.22 41.4Z" clip-rule="evenodd"/>
      <path fill="#E3AD90" d="m117.9 190.92-.94-.62.59-.3 5.98-2s1.72-1.26 2.45-.95l6.5.44s2.46-.54 3.8-1c.03 0 .22-.1.5 1.1l.4 3.7s-18.37.37-19.28-.37Z"/>
      <path fill="url(#H)" d="M133.73 186.56c21.57-4.93 30.86-8.23 31.18-10.18.61-3.57 1.76-33.07 5.85-46.39 2.48-6.48 15.32-6.9 15.38 5.96-.83 12-10.42 50.49-10.57 50.5-1.67 2.78-33.08 5.07-41.16 5.27l-.68-5.16Z"/>
      <path fill="url(#I)" d="m164.75 203 18.23 1.33a32.7 32.7 0 0 1-6.92-7.78c-1.52-2.46-2.8-7.94-2.8-7.94l-19.22 4.48 10.71 9.9Z"/>
      <g opacity=".38" style="mix-blend-mode:multiply">
        <path fill="#203365" fill-rule="evenodd" d="M179.3 317.18c-2.43-3.07-5.01 1-7.55 3.1-1.41-2.6.08-6.42-.94-10.31-.62-2.2-6.76-10.35-10.76-8.94 3.94 5.97 5 6.78 5.2 8.17 2.77 7.96-.28 15.21-.66 22.97 10.48 4.1 8.13-9.62 14.72-15Z" clip-rule="evenodd"/>
        <path fill="url(#J)" d="M163.85 309.37c-.94 8.47-5.03 15.86-8.94 18.75l4.83 5.22c.7-.66 4.83-1.2 4.83-1.2s2.35-12.46 1.98-19.87c-.24-4.8-2.74-5.64-2.74-5.64s.3.36.04 2.74Z"/>
        <path fill="url(#K)" d="M153.36 342c4.48-5.42 7.93-9.63 7.93-9.63s-3.4-5.64-4.96-5.84c-.82-.1-13.17 7.89-24.72 15.46h21.75Z"/>
      </g>
      <g opacity=".38" style="mix-blend-mode:multiply">
        <path fill="#203365" fill-rule="evenodd" d="M103.5 310.12c-3.92-.29-2.67 4.37-2.86 7.66-2.85-.74-4.65-4.4-8.2-6.29-2.04-1.04-12.22-2.06-13.9 1.84 7.07 1.14 8.39.91 9.54 1.71 7.73 3.36 10.99 10.51 16.43 16.05 10.16-4.93-1.52-12.48-1.01-20.97Z" clip-rule="evenodd"/>
        <path fill="url(#L)" d="M87.29 316.2c5.58 6.4 8.24 14.44 7.72 19.28h7.13c0-.97 2.39-4.36 2.39-4.36s-7.57-10.18-13.27-14.93c-3.7-3.08-6-1.81-6-1.81s.45 0 2.03 1.81Z"/>
        <path fill="url(#M)" d="M103.9 342a853.1 853.1 0 0 1-1.5-8.95l-7.52.55-.6 8.37 9.63.02Z"/>
      </g>
    </g>
  </g>
  <defs>
    <linearGradient id="c" x1="194.23" x2="194.23" y1="293.14" y2="344.02" gradientUnits="userSpaceOnUse">
      <stop stop-color="#96CFD9"/>
      <stop offset=".61" stop-color="#fff"/>
    </linearGradient>
    <linearGradient id="d" x1="366.28" x2="366.28" y1="30.34" y2="43.6" gradientUnits="userSpaceOnUse">
      <stop stop-color="#fff"/>
      <stop offset="1" stop-color="#fff" stop-opacity="0"/>
    </linearGradient>
    <linearGradient id="e" x1="331.52" x2="331.52" y1="36.06" y2="43.59" gradientUnits="userSpaceOnUse">
      <stop stop-color="#fff"/>
      <stop offset="1" stop-color="#fff" stop-opacity="0"/>
    </linearGradient>
    <linearGradient id="f" x1="192.67" x2="192.67" y1="222.47" y2="298.8" gradientUnits="userSpaceOnUse">
      <stop stop-color="#F1B330"/>
      <stop offset=".04" stop-color="#F2B731"/>
      <stop offset=".24" stop-color="#F6CA33"/>
      <stop offset=".45" stop-color="#F8D435"/>
      <stop offset=".68" stop-color="#F9D835"/>
      <stop offset=".72" stop-color="#F6CC33"/>
      <stop offset=".78" stop-color="#F3BE31"/>
      <stop offset=".86" stop-color="#F2B530"/>
      <stop offset="1" stop-color="#F1B330"/>
    </linearGradient>
    <linearGradient id="g" x1="192.67" x2="192.67" y1="222.47" y2="298.8" gradientUnits="userSpaceOnUse">
      <stop stop-color="#F1B330"/>
      <stop offset=".06" stop-color="#F2B731"/>
      <stop offset=".35" stop-color="#F6CA33"/>
      <stop offset=".66" stop-color="#F8D435"/>
      <stop offset="1" stop-color="#F9D835"/>
    </linearGradient>
    <linearGradient id="h" x1="216.95" x2="216.95" y1="9.78" y2="51.19" gradientUnits="userSpaceOnUse">
      <stop stop-color="#fff"/>
      <stop offset="1" stop-color="#fff" stop-opacity="0"/>
    </linearGradient>
    <linearGradient id="i" x1="164.2" x2="164.2" y1="9.78" y2="51.19" gradientUnits="userSpaceOnUse">
      <stop stop-color="#fff"/>
      <stop offset="1" stop-color="#fff" stop-opacity="0"/>
    </linearGradient>
    <linearGradient id="j" x1="190.6" x2="190.6" y1="9.78" y2="51.19" gradientUnits="userSpaceOnUse">
      <stop stop-color="#fff"/>
      <stop offset="1" stop-color="#fff" stop-opacity="0"/>
    </linearGradient>
    <linearGradient id="k" x1="247.1" x2="247.1" y1="26.72" y2="217.84" gradientUnits="userSpaceOnUse">
      <stop stop-color="#fff"/>
      <stop offset="1" stop-color="#fff" stop-opacity="0"/>
    </linearGradient>
    <linearGradient id="l" x1="134.07" x2="134.07" y1="26.72" y2="217.84" gradientUnits="userSpaceOnUse">
      <stop stop-color="#fff"/>
      <stop offset="1" stop-color="#fff" stop-opacity="0"/>
    </linearGradient>
    <linearGradient id="m" x1="243.48" x2="279.69" y1="141" y2="173.25" gradientUnits="userSpaceOnUse">
      <stop stop-color="#2980BA"/>
      <stop offset="1" stop-color="#9CBAD8"/>
    </linearGradient>
    <linearGradient id="n" x1="49.3" x2="49.3" y1="92.5" y2="127" gradientUnits="userSpaceOnUse">
      <stop stop-color="#fff"/>
      <stop offset="1" stop-color="#fff" stop-opacity="0"/>
    </linearGradient>
    <linearGradient id="o" x1="269.61" x2="211.55" y1="118.5" y2="179.78" gradientUnits="userSpaceOnUse">
      <stop stop-color="#96CFD9"/>
      <stop offset=".78" stop-color="#D6EEF3"/>
      <stop offset="1" stop-color="#96CFD9"/>
    </linearGradient>
    <linearGradient id="p" x1="292.83" x2="227.85" y1="233.29" y2="297.63" gradientUnits="userSpaceOnUse">
      <stop stop-color="#2980BA"/>
      <stop offset="1" stop-color="#9CBAD8"/>
    </linearGradient>
    <linearGradient id="q" x1="199.66" x2="316.95" y1="245.01" y2="245.01" gradientUnits="userSpaceOnUse">
      <stop stop-color="#2980BA"/>
      <stop offset="1" stop-color="#9CBAD8"/>
    </linearGradient>
    <linearGradient id="r" x1="237.32" x2="198.41" y1="157.05" y2="149.9" gradientUnits="userSpaceOnUse">
      <stop stop-color="#2980BA"/>
      <stop offset="1" stop-color="#D7EEF1"/>
    </linearGradient>
    <linearGradient id="s" x1="307.1" x2="307.1" y1="307.98" y2="368.39" gradientUnits="userSpaceOnUse">
      <stop stop-color="#2980BA"/>
      <stop offset=".53" stop-color="#fff"/>
    </linearGradient>
    <linearGradient id="t" x1="250.53" x2="250.53" y1="314.4" y2="347.77" gradientUnits="userSpaceOnUse">
      <stop stop-color="#2980BA"/>
      <stop offset=".64" stop-color="#fff"/>
    </linearGradient>
    <linearGradient id="u" x1="237.85" x2="257.33" y1="106.68" y2="110.22" gradientUnits="userSpaceOnUse">
      <stop stop-color="#D6EEF3"/>
      <stop offset=".28" stop-color="#D4EDF2"/>
      <stop offset=".38" stop-color="#CDEAEF"/>
      <stop offset=".46" stop-color="#C1E4EB"/>
      <stop offset=".52" stop-color="#B0DCE4"/>
      <stop offset=".57" stop-color="#9AD1DB"/>
      <stop offset=".58" stop-color="#96CFD9"/>
      <stop offset=".59" stop-color="#98D0DA"/>
      <stop offset=".69" stop-color="#B3DDE5"/>
      <stop offset=".79" stop-color="#C7E7ED"/>
      <stop offset=".89" stop-color="#D2ECF1"/>
      <stop offset="1" stop-color="#D6EEF3"/>
    </linearGradient>
    <linearGradient id="v" x1="253.14" x2="205.62" y1="117.09" y2="162.78" gradientUnits="userSpaceOnUse">
      <stop stop-color="#F0B22E"/>
      <stop offset=".01" stop-color="#F1B52F"/>
      <stop offset=".06" stop-color="#F4C833"/>
      <stop offset=".11" stop-color="#F5D235"/>
      <stop offset=".17" stop-color="#F6D636"/>
      <stop offset="1" stop-color="#F0B22E"/>
    </linearGradient>
    <linearGradient id="w" x1="302.65" x2="330.75" y1="166.82" y2="166.82" gradientUnits="userSpaceOnUse">
      <stop stop-color="#96CFD9"/>
      <stop offset=".78" stop-color="#D6EEF3"/>
      <stop offset="1" stop-color="#96CFD9"/>
    </linearGradient>
    <linearGradient id="x" x1="197.52" x2="270.4" y1="116.25" y2="191.88" gradientUnits="userSpaceOnUse">
      <stop stop-color="#2980BA"/>
      <stop offset="1" stop-color="#9CBAD8"/>
    </linearGradient>
    <linearGradient id="y" x1="147.47" x2="121.8" y1="151.77" y2="176.51" gradientUnits="userSpaceOnUse">
      <stop stop-color="#2980BA"/>
      <stop offset="1" stop-color="#9AB8D7"/>
    </linearGradient>
    <linearGradient id="z" x1="187.99" x2="132.03" y1="202.66" y2="121.19" gradientUnits="userSpaceOnUse">
      <stop stop-color="#2980BA"/>
      <stop offset="1" stop-color="#9CBAD8"/>
    </linearGradient>
    <linearGradient id="A" x1="151.74" x2="149.37" y1="200.28" y2="120.16" gradientUnits="userSpaceOnUse">
      <stop stop-color="#96D0DA"/>
      <stop offset=".78" stop-color="#D8EEF3"/>
      <stop offset="1" stop-color="#96D0DA"/>
    </linearGradient>
    <linearGradient id="B" x1="155.25" x2="136.46" y1="126.51" y2="126.7" gradientUnits="userSpaceOnUse">
      <stop stop-color="#D8EEF3"/>
      <stop offset=".28" stop-color="#D6EDF2"/>
      <stop offset=".38" stop-color="#CFEAF0"/>
      <stop offset=".46" stop-color="#C3E5EB"/>
      <stop offset=".52" stop-color="#B2DDE5"/>
      <stop offset=".57" stop-color="#9CD3DC"/>
      <stop offset=".58" stop-color="#96D0DA"/>
      <stop offset=".59" stop-color="#9AD2DC"/>
      <stop offset=".69" stop-color="#B5DEE6"/>
      <stop offset=".79" stop-color="#C9E7ED"/>
      <stop offset=".89" stop-color="#D4ECF2"/>
      <stop offset="1" stop-color="#D8EEF3"/>
    </linearGradient>
    <linearGradient id="C" x1="104.51" x2="77.83" y1="294.76" y2="294.76" gradientUnits="userSpaceOnUse">
      <stop stop-color="#E9B096"/>
      <stop offset=".81" stop-color="#F2BF93"/>
    </linearGradient>
    <linearGradient id="D" x1="169.24" x2="151.09" y1="275.99" y2="295.74" gradientUnits="userSpaceOnUse">
      <stop stop-color="#E9B096"/>
      <stop offset=".81" stop-color="#F2BF93"/>
    </linearGradient>
    <linearGradient id="E" x1="110.9" x2="163.69" y1="230.36" y2="282.64" gradientUnits="userSpaceOnUse">
      <stop stop-color="#2980BA"/>
      <stop offset="1" stop-color="#9CBAD8"/>
    </linearGradient>
    <linearGradient id="F" x1="178.75" x2="89.06" y1="240.56" y2="240.56" gradientUnits="userSpaceOnUse">
      <stop stop-color="#2980BA"/>
      <stop offset="1" stop-color="#9CBAD8"/>
    </linearGradient>
    <linearGradient id="G" x1="100.98" x2="74.53" y1="170.95" y2="170.95" gradientUnits="userSpaceOnUse">
      <stop stop-color="#94CDD8"/>
      <stop offset=".78" stop-color="#D7EEF1"/>
      <stop offset="1" stop-color="#94CDD8"/>
    </linearGradient>
    <linearGradient id="H" x1="155.02" x2="183.31" y1="156.02" y2="183.71" gradientUnits="userSpaceOnUse">
      <stop stop-color="#2980BA"/>
      <stop offset="1" stop-color="#9CBAD8"/>
    </linearGradient>
    <linearGradient id="I" x1="179.04" x2="111.6" y1="214.22" y2="116.06" gradientUnits="userSpaceOnUse">
      <stop stop-color="#2980BA"/>
      <stop offset="1" stop-color="#9CBAD8"/>
    </linearGradient>
    <linearGradient id="J" x1="168.88" x2="150.74" y1="325.71" y2="305.96" gradientUnits="userSpaceOnUse">
      <stop stop-color="#E9B096"/>
      <stop offset=".81" stop-color="#F2BF93"/>
    </linearGradient>
    <linearGradient id="K" x1="146.42" x2="146.78" y1="338.71" y2="318.9" gradientUnits="userSpaceOnUse">
      <stop stop-color="#fff"/>
      <stop offset=".02" stop-color="#EFF5FA"/>
      <stop offset=".06" stop-color="#C6DDED"/>
      <stop offset=".11" stop-color="#A0C7E0"/>
      <stop offset=".17" stop-color="#80B3D6"/>
      <stop offset=".23" stop-color="#64A3CD"/>
      <stop offset=".3" stop-color="#4E96C6"/>
      <stop offset=".38" stop-color="#3D8CC1"/>
      <stop offset=".47" stop-color="#3285BD"/>
      <stop offset=".61" stop-color="#2B81BB"/>
      <stop offset="1" stop-color="#2980BA"/>
    </linearGradient>
    <linearGradient id="L" x1="104.51" x2="77.83" y1="324.78" y2="324.78" gradientUnits="userSpaceOnUse">
      <stop stop-color="#E9B096"/>
      <stop offset=".81" stop-color="#F2BF93"/>
    </linearGradient>
    <linearGradient id="M" x1="99.09" x2="99.09" y1="331.41" y2="383.68" gradientUnits="userSpaceOnUse">
      <stop stop-color="#2980BA"/>
      <stop offset=".02" stop-color="#4490C3"/>
      <stop offset=".05" stop-color="#70AAD1"/>
      <stop offset=".08" stop-color="#96C1DD"/>
      <stop offset=".11" stop-color="#B7D4E8"/>
      <stop offset=".15" stop-color="#D1E4F0"/>
      <stop offset=".19" stop-color="#E6F0F7"/>
      <stop offset=".24" stop-color="#F4F8FB"/>
      <stop offset=".29" stop-color="#FCFDFE"/>
      <stop offset=".38" stop-color="#fff"/>
    </linearGradient>
    <filter id="a" width="396.79" height="349.99" x="0" y="0" color-interpolation-filters="sRGB" filterUnits="userSpaceOnUse">
      <feFlood flood-opacity="0" result="BackgroundImageFix"/>
      <feColorMatrix in="SourceAlpha" result="hardAlpha" values="0 0 0 0 0 0 0 0 0 0 0 0 0 0 0 0 0 0 127 0"/>
      <feOffset dy="4"/>
      <feGaussianBlur stdDeviation="2"/>
      <feComposite in2="hardAlpha" operator="out"/>
      <feColorMatrix values="0 0 0 0 0 0 0 0 0 0 0 0 0 0 0 0 0 0 0.25 0"/>
      <feBlend in2="BackgroundImageFix" result="effect1_dropShadow_26_1824"/>
      <feBlend in="SourceGraphic" in2="effect1_dropShadow_26_1824" result="shape"/>
    </filter>
    <filter id="b" width="396.79" height="349.99" x="0" y="0" color-interpolation-filters="sRGB" filterUnits="userSpaceOnUse">
      <feFlood flood-opacity="0" result="BackgroundImageFix"/>
      <feColorMatrix in="SourceAlpha" result="hardAlpha" values="0 0 0 0 0 0 0 0 0 0 0 0 0 0 0 0 0 0 127 0"/>
      <feOffset dy="4"/>
      <feGaussianBlur stdDeviation="2"/>
      <feComposite in2="hardAlpha" operator="out"/>
      <feColorMatrix values="0 0 0 0 0 0 0 0 0 0 0 0 0 0 0 0 0 0 0.25 0"/>
      <feBlend in2="BackgroundImageFix" result="effect1_dropShadow_26_1824"/>
      <feBlend in="SourceGraphic" in2="effect1_dropShadow_26_1824" result="shape"/>
    </filter>
  </defs>
</svg>