<svg xmlns="http://www.w3.org/2000/svg" fill="none" viewBox="0 0 397 350">
  <g filter="url(#a)">
    <path fill="url(#b)" d="M236.052 326.995a41.993 41.993 0 0 0-83.645 0h83.645Z" style="mix-blend-mode:multiply"/>
    <path fill="url(#c)" d="M339.766 43.587c3.986-7.745 14.357-13.25 26.525-13.25s22.525 5.514 26.501 13.26l-53.026-.01Z"/>
    <path fill="url(#d)" d="M314.672 43.587c3.058-4.46 9.453-7.529 16.85-7.529 7.397 0 13.787 3.078 16.85 7.53h-33.7Z"/>
    <path fill="#fff" d="M91.381 5.233C92.953 2.183 97.028 0 101.837 0c4.809 0 8.884 2.183 10.451 5.233H91.381ZM85.692 15.34c1.205-1.76 3.732-2.974 6.645-2.974 2.912 0 5.44 1.214 6.644 2.974H85.692Z"/>
    <path fill="url(#e)" d="m251.227 221.323-117.092-.037a5.96 5.96 0 0 0-5.961 5.938v44.655a5.957 5.957 0 0 0 5.961 5.934h21.49l11.077 19.25 51.907.028 11.119-19.245h21.49a5.95 5.95 0 0 0 5.499-3.671 5.949 5.949 0 0 0 .453-2.277l.024-44.608a5.968 5.968 0 0 0-5.967-5.967Z"/>
    <path fill="url(#f)" d="M134.135 277.813h21.491l.244.433c5.35-.553 10.724-.831 16.102-.833h81.429a5.94 5.94 0 0 0 3.765-5.515l.023-44.608a5.965 5.965 0 0 0-5.948-5.967l-117.106-.037a5.96 5.96 0 0 0-5.961 5.938v44.655a5.957 5.957 0 0 0 5.961 5.934Z"/>
    <path fill="url(#g)" d="M216.952 51.191a20.702 20.702 0 0 1-20.306-24.743 20.709 20.709 0 0 1 16.267-16.267 20.707 20.707 0 0 1 24.744 20.306 20.704 20.704 0 0 1-20.705 20.704Zm0-37.263a16.561 16.561 0 0 0-16.23 19.795 16.56 16.56 0 0 0 30.009 5.962 16.558 16.558 0 0 0 2.789-9.198 16.574 16.574 0 0 0-16.568-16.559Z"/>
    <path fill="url(#h)" d="M164.199 51.191a20.706 20.706 0 0 1-20.306-24.743 20.7 20.7 0 0 1 28.229-15.089 20.706 20.706 0 0 1 6.717 33.768 20.704 20.704 0 0 1-14.64 6.064Zm0-37.263a16.558 16.558 0 1 0 16.549 16.559 16.572 16.572 0 0 0-16.549-16.559Z"/>
    <path fill="url(#i)" d="M190.602 51.191a20.706 20.706 0 0 1-14.641-35.344 20.707 20.707 0 0 1 31.855 3.137 20.705 20.705 0 0 1-17.214 32.207Zm0-37.263a16.56 16.56 0 0 0-16.241 19.79 16.558 16.558 0 0 0 32.799-3.231 16.578 16.578 0 0 0-16.558-16.559Z"/>
    <path fill="url(#j)" d="m254.432 32.176-20.474 185.665h5.209l20.737-188.102.339-3.016-24.76 1.176.24 5.176 18.709-.899Z"/>
    <path fill="url(#k)" d="M147.203 217.841 126.738 32.176l18.705.899.244-5.176-24.755-1.176 21.071 191.118h5.2Z"/>
    <path fill="url(#l)" d="M273.451 182.889c-9.641-2.823-15.82-8.216-21.494-13.891.861-15.801 6.653-28.115 8.804-43.592.545-7.773-8.691-19.81-14.832-6.761-4.852 12.606-6.677 61.355-6.531 61.425 12.196 4.023 14.587 4.993 32.364 8 1.186-3.13 2.216-5.031 1.689-5.181Z"/>
    <path fill="url(#m)" fill-rule="evenodd" d="M51.48 122.993c-4.89-5.003-12.98-8.277-22.131-8.277-11.637 0-21.542 5.274-25.349 12.704h90.609c-1.83-2.677-5.646-4.512-10.074-4.512-3.03 0-5.77.859-7.786 2.259-3.289-3.02-8.402-4.955-14.137-4.955-4.202 0-8.07 1.038-11.133 2.781Z" clip-rule="evenodd"/>
    <path fill="#E3AD91" d="M267.273 72.488c-6.188 2.955-9.698 2.607-16.168 3.412-.678.084-8.061 5.392-8.724 5.355l.941 9.665-.278 11.881 1.021 6.616 9.882 4.324s.824-13.504 2-13.02c1.176.485 11.434 6.687 11.293 3.906-.141-2.781 1.242-32.713.033-32.139Z"/>
    <path fill="#E3AD91" d="M262.497 80.746c-1.774 2.438-.941 4.706.47 7.148a19.36 19.36 0 0 1 1.77 3.614c.47 1.412.809-.268 1.585-.47a29.48 29.48 0 0 0-1.971.578c-1.882.612-2.983 3.125-.184 2.212 1.577-.513 7.115 1.553 5.134-2.287-.659-1.28-1.703-4.884-1.496-6.268.282-1.882-3.257-2.823-1.925-4.658 1.412-1.93-2.64-.88-3.369.132"/>
    <path fill="#E3AD91" d="M267.104 101.648c0 .09-.344 2.951-.334 3.054-1.539-.593-2.786-3.764-4.461-4.009-.132-2.315-.278-4.635-.405-6.955 1.661.165 2.085-1.642 3.722-1.92-1.007-2.296 1.172 1.836 1.148 1.883-.404.54.941 1.854 1.346 2.39.405.537-.376.706-.776 1.384-.4.677.823 1.477.823 1.882 0 .404-1.205.946-1.063 2.291Z"/>
    <path fill="#1F3465" d="M245.722 86.332c.593-3.256 3.727-3.731 4.705-.748 0 0 .226 2.593.057 3.322 1.148-1.727 2.96-3.685 4.771-4.673a16.68 16.68 0 0 0 2.96-5.138s9.237-.626 9.849-.941c.611-.316 5.119-4.235 5.044-5.383 0 0-3.19 2.131-4.235 1.66l1.91-2.032s-16.629-4.847-17.41-5.13c-.781-.281-10.103 2.824-11.764 4.208-1.661 1.383-2.018 8.102-.762 12.116.649 2.08 2.409 13.552 2.211 14.117-.272.762 3.581-3.501 4.617-6.056.174-.377-2.541-2.075-1.953-5.322Z"/>
    <path fill="#1F3465" d="m250.559 89.325-.56-.645.071-4.856 2.414-2.127-1.925 7.628Z"/>
    <path fill="#BEE5EB" d="M267.494 97.253c-.859.514-1.79.898-2.762 1.14 0 0 .913.29 2.72-.175a8.63 8.63 0 0 0 .042-.965ZM255.679 100.919c-.391.598-.367.678-.367.678s-3.831-3.67-4.33-5.13c-.498-1.458-.428-5.505-.428-5.505s.659 4.31 1.718 5.698c1.059 1.389 3.562 4.052 3.562 4.052a2.066 2.066 0 0 0-.155.207Z"/>
    <path fill="url(#n)" d="M253.345 107.935s1.129-1.44 1.124-1.445c-.536 2.969-4.611 5.393-7.331 7.567-.706-3.388-2.724-9.143-4.014-12.531-6.343 24.939-37.578 94.632-37.794 96.825l22.586 4.833c.118-.391 5.567-1.266 5.501-1.675-.334-2.019-1.388-14.795 6.206-35.047 18.197-41.249 17.58-54.8 13.722-58.527Z"/>
    <path fill="url(#o)" d="M284.796 222.716c8.277-14.163 19.086 23.528 20.38 16.992 0 0-8.569 5.646-9.058 5.825-.49.179-56.937 42.693-58.518 42.5-1.581-.192-5.082-6.371-5.082-6.371s40.1-46.933 41.084-47.318c.983-.386 10.818-10.978 11.194-11.628Z"/>
    <path fill="url(#p)" d="M316.949 206.459c0-8.174-6.884-14.804-15.373-14.804h-86.544c-8.469 0-15.368 6.63-15.368 14.804 0 8.173 6.88 14.803 15.368 14.803h77.933c2.226 16.47 11.524 76.874 11.524 76.874s6.691.72 7.806-.438c1.115-1.157 4.654-89.724 4.654-91.239Z"/>
    <path fill="url(#q)" d="m186.983 208.972 14.738-44.529c8.357-22.934 4.046-31.475 6.931-40.768 7.867-6.588 15.999-14.893 6.926-21.956 5.134.395 20.794-3.43 27.354-.706.625 1.619 9.114 13.585-16.846 59.68-5.614 15.312-14.47 39.569-14.47 39.569l-24.633 8.71Z"/>
    <path fill="#16244C" d="m303.896 295.087 5.83-.099h3.59c2.49 1.609 6.278 2.047 9.233 2.649 2.955.603 4.235.654 7.528 1.379a.645.645 0 0 1 .57.414.639.639 0 0 1-.156.687c-1.383 1.882-4.865 1.854-6.982 1.915-2.118.061-6.405-.315-8.499-.418-4.705-.231-7.119-1.125-7.735-.292-.41.56-5.327.155-5.092-.857.579-2.583 1.515-4.06 1.713-5.378Z"/>
    <g opacity=".39" style="mix-blend-mode:multiply">
      <path fill="url(#r)" d="M314.262 336.5c-.795-16.032-1.557-29.009-1.967-29.433-1.115-1.157-7.806-.437-7.806-.437s-2.113 13.721-4.565 29.87h14.338Z"/>
      <path fill="#16244C" d="m303.896 309.669 5.83.094h3.59c2.49-1.609 4.758-1.167 7.717-1.769 2.96-.602 5.727-.809 9.04-1.539a.632.632 0 0 0 .596-.777.633.633 0 0 0-.182-.319c-1.384-1.882-4.866-1.854-6.983-1.915-2.118-.061-9.157-.094-12.013-.4-3.341-.358-3.068.099-3.624-.24-.221-.141-.291-.711-.588-.748-1.703-.221-5.176-.748-4.964.263.583 2.588 1.383 6.033 1.581 7.35Z"/>
    </g>
    <path fill="#16244C" d="m234.617 278.557 4.931 3.91 2.889 2.287c1.05 2.969 3.835 5.755 5.854 8.154 2.019 2.4 3.002 3.247 5.237 5.981a.696.696 0 0 1-.324 1.205c-2.221.729-5.002-1.516-6.739-2.824-1.736-1.308-4.969-4.348-6.587-5.769-3.661-3.213-5.059-5.505-6.047-5.176-.663.221-4.376-3.265-3.59-3.981 2-1.835 3.444-2.781 4.376-3.787Z"/>
    <g opacity=".38" style="mix-blend-mode:multiply">
      <path fill="url(#s)" d="M269.503 338.716c-15.335-11.359-31.997-25.786-32.868-25.682-1.595.197-5.082 6.366-5.082 6.366a226.544 226.544 0 0 0 14.653 19.293l23.297.023Z"/>
      <path fill="#16244C" d="m233.652 322.506 4.946-3.91c.028 0 2.861-2.264 2.884-2.287 1.054-2.969 3.84-5.755 5.858-8.155 2.019-2.4 2.998-3.242 5.238-5.981a.69.69 0 0 0 .205-.321.689.689 0 0 0-.191-.709.694.694 0 0 0-.339-.174c-2.221-.729-5.002 1.515-6.743 2.823-1.741 1.308-4.964 4.353-6.588 5.774-3.665 3.209-5.058 5.501-6.046 5.176-.664-.221-4.376 3.265-3.595 3.981 1.99 1.835 3.435 2.776 4.371 3.783Z"/>
    </g>
    <path fill="url(#t)" d="m255.326 112.212-.574-5.176-.207-1.106a7.018 7.018 0 0 1-1.2 1.991c-.711.729-5.986 5.971-5.986 5.971s-2.296-12.39-5.232-14.079c0 0-.598 2.184-1.807 2.532-1.209.348-2.268.348-1.529.47.738.123 2.823 1.196 3.369.433.546-.762 3.482 3.896 4.545 12.611l6.729-6.879 1.807 4.159 1.638-.56-1.553-.367Z"/>
    <path fill="url(#u)" d="M251.199 111.012s-1.261-2.032-2.395-2.028c-1.134.005-3.162 2.113-3.162 2.113l1.534 5.562s-8.748 14.267-22.695 26.139a94.732 94.732 0 0 1-12.319 8.823l-1.369 9.848 7.18 1.149s10.941-7.915 15.651-14.31c11.924-16.201 15.585-30.717 15.429-30.91-.235-.287 3.398-4.635 2.132-6.39"/>
    <path fill="url(#v)" fill-rule="evenodd" d="M329.908 144.967c-.202-.117-1.722 1.092-1.934 1.035l-25.179 42.679h3.411c.353-.494.678-1.008.974-1.538l23.213-39.687c.531-.894.56-1.877-.485-2.489Z" clip-rule="evenodd"/>
    <path fill="#1F3465" fill-rule="evenodd" d="M256.479 188.71c-.057.216-.09 1.825-.09 2.061 0 1.247.828 1.726 1.845 1.726h44.326c1.016 0 1.839-.47 1.839-1.726 0-.236-.033-1.845-.084-2.061h-47.836ZM304.385 188.658c.099.546 1.473 1.388 1.68 1.506 1.073.63 1.93.113 2.475-.819l23.848-40.764c.546-.941.574-1.934-.499-2.564-.207-.118-1.614-.904-1.774-1.351l-25.73 43.992Z" clip-rule="evenodd"/>
    <path fill="#E3AD91" d="m293.779 188.009 1.177-.767-.73-.382-7.42-2.479s-2.137-1.558-3.031-1.191l-8.07.546s-3.049-.664-4.705-1.238c-.043 0-.287-.122-.635 1.374l-.504 4.569s22.794.471 23.918-.432Z"/>
    <path fill="url(#w)" d="M272.844 182.16c-8.056.098-23.485.305-31.155-7.967-3.054-3.294-11.359-50.382-16.436-66.903-3.078-8.046-19.01-8.573-19.076 7.378 1.025 14.908 23.01 73.303 23.193 73.303 2.08 3.463 32.609.362 42.632.607l.842-6.418Z"/>
    <g fill="#fff" opacity=".2" style="mix-blend-mode:screen">
      <path d="M279.065 147.546c0 65.543-53.13 118.691-118.673 118.691S41.686 213.089 41.686 147.546 94.83 28.878 160.373 28.878s118.692 53.13 118.692 118.668Z" opacity=".3"/>
      <path d="M225.455 147.546a65.082 65.082 0 1 1-65.082-65.077 65.096 65.096 0 0 1 65.082 65.077Z"/>
    </g>
    <path fill="url(#x)" d="m141.97 189.853-3.628-3.35c2.767-1.567 2.701-2.537 2.428-4.856-1.331-14.018-10.197-30.45-12.662-44.138-.767-6.894 7.02-17.923 12.949-6.541 4.762 11.035 8.122 54.325 8 54.396a28.01 28.01 0 0 1-7.087 4.489Z"/>
    <path fill="#E6AF92" d="M136.427 109.191c0-.202-.047-.395-.075-.588a10.015 10.015 0 0 0-.283-4.32c-.677-2.352-1.496-4.705-2.028-7.086-.47-2.056-2.555-3.957-4.352-4.833a8.887 8.887 0 0 0-.753-.324c.64-1.47 1.428-2.87 2.353-4.179.941-.47 9.561-3.43 13.669.508a12.768 12.768 0 0 0 .165 3.793c.734 3.826 4.799-1.313 5.623 2.494.409 1.882 2.931 1.21 3.327 3.12.193.94-4.551 8.747-3.379 11.5-.118-.574 4.042 5.341 4.099 5.6.536 3.124-3.195 13.956-2.824 17.161-1.882 3.176-5.849-.085-6.018-.523-.254-.64-1.962.593-1.718-5.811.231-6.16-2.112-15.288-4.013-13.176-1.901 2.113-4.329.847-5.896.471 2.061-1.76 2.324-.965 2.103-3.807Z"/>
    <path fill="#E6AF92" d="M129.317 101.342c.645-1.449.588-2.973 0-5.096-.325-1.157-1.346-4.841-.819-7.09 6.466-2.255 7.299-.542 9.647 4.747 1.237 2.795 5.792 17.561 5.646 17.683-.372.16-7.82 5.67-10.201 4.414-.316-.165-.607-4.305-1.478-4.494-.87-.188-.965-.663-.899-1.336.066-.673.226-.541-.447-.743-.673-.203-.338-.767-.47-1.883-.132-1.115-1.548-1.265-2.852-1.971-1.303-.706-.009-.019 1.873-4.231Z"/>
    <path fill="#BEE5EB" d="M130.555 109.248c1.015.139 2.046.127 3.058-.038 0 0-.739.645-2.63.941a7.028 7.028 0 0 1-.428-.903ZM141.829 113.125c.367.541.343.602.343.602s2.019-.197 3.944-2.889c.72-1.007 1.247-5.002 1.247-5.002s-.993 3.224-1.934 4.353a8.907 8.907 0 0 1-3.736 2.748s.056.075.136.188Z"/>
    <path fill="#203365" fill-rule="evenodd" d="M133.848 85.744c7.873-8.037 16.225.94 19.914 9.321a7.581 7.581 0 0 0-.612 2.052c-.216 1.939-22.948-3.101-24.247-7.722-1.647.207-2.445 1.148-2.395 2.824-1.981-3.534 2.894-6.428 7.34-6.475Z" clip-rule="evenodd"/>
    <path fill="url(#y)" d="m175.073 202.883-35.809-6.268c10.771-10.588 7.529-24.351 6.151-27.956-5.755-14.869-15.769-34.75-13.595-39.573 2.245-4.978 6.433-3.962 11.209-6.061.127 3.294 4.08 7.482 6.686 10.235 1.341-3.727 3.642-12.564 5.52-15.919 9.882 5.506 12.705 4.579 21.923 7.36 5.519 1.665 8.395.084 1.939 29.174-5.162 24.064-6.414 27.508-4.024 49.008Z"/>
    <path fill="url(#z)" d="m155.687 170.452-1.045.108c-2.31-14.667-11.444-41.62-11.608-47.332 0 0 .376.113.381.113 1.218 3.195 1.727 4.277 5.717 9.881 2.776-9.157 5.341-11.985 7.251-15.438 2.31 21.137-4.122 25.376-.696 52.668Z"/>
    <path fill="url(#A)" d="m141.707 128.54 1.322-5.505.833-1.948a7.86 7.86 0 0 0 .809 2.305c.551.88 4.202 8 4.202 8s4.037-13.067 7.058-14.512c0 0 .217 2.437 1.294 2.969 1.078.532 2.057.668 1.351.72-.706.052-2.824.941-3.209.028-.386-.912-3.84 3.765-6.169 13.021l-5.223-8.301-2.32 4.235-1.445-.814 1.497-.198Z"/>
    <path fill="#203365" d="M149.118 80.469c12.018 5.204 13.919 20.803 14.22 24.271.146 14.695-12.86 22.789-19.961 19.292 9.27-10.469 5.294-18.963 5.294-18.963 2.823.57 2.823-3.628 1.647-6.588-1.177-2.96-2.075.89-2.075.89-.076 1.186-1.558.71-1.558.71-.391-2.465-2.621-7.561-6.851-9.044-3.181-1.115.404-1.74-1.769-3.764-2.174-2.023-6.202-1.167-6.202-1.167.753-3.308 9.51-8.997 17.255-5.637Z"/>
    <path fill="#203365" fill-rule="evenodd" d="M103.498 309.41c-3.915.288-2.673-4.366-2.856-7.655-2.852.738-4.654 4.404-8.211 6.286-2.033 1.035-12.206 2.066-13.882-1.835 7.059-1.143 8.376-.913 9.534-1.717 7.726-3.355 10.987-10.513 16.431-16.051 10.159 4.936-1.524 12.465-1.016 20.972Z" clip-rule="evenodd"/>
    <path fill="url(#B)" d="M87.287 303.345c5.581-6.423 8.24-14.455 7.722-19.292h7.129c0 .941 2.39 4.362 2.39 4.362s-7.566 10.178-13.27 14.93c-3.693 3.078-5.99 1.807-5.99 1.807s.443-.014 2.02-1.807Z"/>
    <path fill="#203365" fill-rule="evenodd" d="M179.308 283.493c-2.442 3.072-5.02-.998-7.561-3.092-1.412 2.598.084 6.409-.942 10.3-.616 2.198-6.752 10.353-10.756 8.964 3.938-5.966 5.002-6.78 5.199-8.178 2.772-7.952-.282-15.199-.658-22.958 10.483-4.117 8.131 9.585 14.718 14.964Z" clip-rule="evenodd"/>
    <path fill="url(#C)" d="M163.855 291.304c-.941-8.47-5.039-15.858-8.94-18.742l4.823-5.228c.701.668 4.833 1.2 4.833 1.2s2.352 12.465 1.976 19.876c-.24 4.804-2.734 5.646-2.734 5.646s.306-.367.042-2.752Z"/>
    <path fill="url(#D)" d="M118.777 220.288c-8.075-13.015-14.931 25.754-16.192 19.763 0 0 8.357 5.176 8.832 5.351.476.174 43.357 28.929 44.914 28.75 1.558-.179 4.955-5.849 4.955-5.849s-26.948-32.806-27.908-33.188c-.96-.381-14.234-14.239-14.601-14.827Z"/>
    <path fill="url(#E)" d="M177.619 206.125c-1.002-2.88-6.385-8.889-6.428-11.011l-67.138-.471c-8.277 0-14.992 3.671-14.992 11.185 0 1.139 4.39 59.76 5.812 80.06l7.529.555c2.573-15.839 9.749-55.393 11.42-66.997l49.958 2.494c8.277 0 14.992-3.614 14.992-11.124a9.525 9.525 0 0 0-1.153-4.691Z"/>
    <path fill="url(#F)" fill-rule="evenodd" d="M75.317 150.383c.188-.108 1.618 1.031 1.816.979l23.697 40.166h-3.21c-.331-.466-.638-.95-.917-1.449L74.86 152.736c-.484-.861-.522-1.774.457-2.353Z" clip-rule="evenodd"/>
    <path fill="#1E3565" fill-rule="evenodd" d="M144.431 191.556c.052.198.08 1.713.08 1.939 0 1.176-.776 1.624-1.732 1.624H101.06c-.941 0-1.727-.471-1.727-1.624 0-.226 0-1.741.076-1.939h45.022ZM99.348 191.505c-.1.513-1.388 1.303-1.586 1.411-1.012.588-1.816.104-2.33-.776l-22.44-38.359c-.513-.88-.546-1.821.47-2.414.194-.113 1.511-.852 1.671-1.271l24.215 41.409Z" clip-rule="evenodd"/>
    <path fill="#E3AD90" d="m117.901 190.921-.941-.621.589-.306 5.98-2s1.722-1.256 2.447-.941l6.498.433s2.461-.536 3.798-.997c.033 0 .23-.099.508 1.105l.405 3.689s-18.371.377-19.284-.362Z"/>
    <path fill="url(#G)" d="M133.726 186.559c21.575-4.926 30.859-8.23 31.188-10.183.607-3.566 1.76-33.065 5.849-46.382 2.48-6.484 15.321-6.907 15.373 5.953-.828 12.008-10.418 50.49-10.564 50.495-1.675 2.785-33.084 5.082-41.164 5.274l-.682-5.157Z"/>
    <path fill="url(#H)" d="m164.754 202.991 18.225 1.336a32.703 32.703 0 0 1-6.917-7.778c-1.52-2.456-2.796-7.943-2.796-7.943l-19.231 4.489 10.719 9.896Z"/>
    <g opacity=".38" style="mix-blend-mode:multiply">
      <path fill="#203365" fill-rule="evenodd" d="M179.308 317.179c-2.442-3.072-5.02.998-7.561 3.092-1.412-2.598.084-6.409-.942-10.301-.616-2.197-6.752-10.352-10.756-8.94 3.938 5.971 5.002 6.781 5.199 8.173 2.772 7.957-.282 15.209-.658 22.963 10.483 4.099 8.131-9.618 14.718-14.987Z" clip-rule="evenodd"/>
      <path fill="url(#I)" d="M163.855 309.373c-.941 8.47-5.039 15.857-8.94 18.742l4.823 5.228c.701-.668 4.833-1.2 4.833-1.2s2.352-12.46 1.976-19.872c-.24-4.809-2.734-5.646-2.734-5.646s.306.367.042 2.748Z"/>
      <path fill="url(#J)" d="M153.362 341.991c4.475-5.411 7.924-9.618 7.924-9.618s-3.402-5.646-4.955-5.844c-.823-.099-13.175 7.887-24.722 15.462h21.753Z"/>
    </g>
    <g opacity=".38" style="mix-blend-mode:multiply">
      <path fill="#203365" fill-rule="evenodd" d="M103.498 310.121c-3.915-.287-2.673 4.367-2.856 7.656-2.852-.739-4.654-4.404-8.211-6.287-2.033-1.035-12.206-2.065-13.882 1.836 7.059 1.148 8.376.917 9.534 1.717 7.726 3.355 10.987 10.512 16.431 16.051 10.159-4.937-1.524-12.48-1.016-20.973Z" clip-rule="evenodd"/>
      <path fill="url(#K)" d="M87.287 316.191c5.581 6.418 8.24 14.451 7.722 19.293h7.129c0-.97 2.39-4.367 2.39-4.367s-7.566-10.178-13.269-14.931c-3.694-3.077-5.99-1.806-5.99-1.806s.442 0 2.018 1.811Z"/>
      <path fill="url(#L)" d="M103.907 341.991a853.103 853.103 0 0 1-1.501-8.94l-7.529.551c-.164 2.324-.367 5.176-.597 8.366l9.627.023Z"/>
    </g>
  </g>
  <defs>
    <linearGradient id="b" x1="194.23" x2="194.23" y1="293.144" y2="344.019" gradientUnits="userSpaceOnUse">
      <stop stop-color="#96CFD9"/>
      <stop offset=".61" stop-color="#fff"/>
    </linearGradient>
    <linearGradient id="c" x1="366.279" x2="366.279" y1="30.336" y2="43.596" gradientUnits="userSpaceOnUse">
      <stop stop-color="#fff"/>
      <stop offset="1" stop-color="#fff" stop-opacity="0"/>
    </linearGradient>
    <linearGradient id="d" x1="331.522" x2="331.522" y1="36.058" y2="43.587" gradientUnits="userSpaceOnUse">
      <stop stop-color="#fff"/>
      <stop offset="1" stop-color="#fff" stop-opacity="0"/>
    </linearGradient>
    <linearGradient id="e" x1="192.667" x2="192.667" y1="222.472" y2="298.795" gradientUnits="userSpaceOnUse">
      <stop stop-color="#F1B330"/>
      <stop offset=".04" stop-color="#F2B731"/>
      <stop offset=".24" stop-color="#F6CA33"/>
      <stop offset=".45" stop-color="#F8D435"/>
      <stop offset=".68" stop-color="#F9D835"/>
      <stop offset=".72" stop-color="#F6CC33"/>
      <stop offset=".78" stop-color="#F3BE31"/>
      <stop offset=".86" stop-color="#F2B530"/>
      <stop offset="1" stop-color="#F1B330"/>
    </linearGradient>
    <linearGradient id="f" x1="192.667" x2="192.667" y1="222.472" y2="298.8" gradientUnits="userSpaceOnUse">
      <stop stop-color="#F1B330"/>
      <stop offset=".06" stop-color="#F2B731"/>
      <stop offset=".35" stop-color="#F6CA33"/>
      <stop offset=".66" stop-color="#F8D435"/>
      <stop offset="1" stop-color="#F9D835"/>
    </linearGradient>
    <linearGradient id="g" x1="216.952" x2="216.952" y1="9.783" y2="51.191" gradientUnits="userSpaceOnUse">
      <stop stop-color="#fff"/>
      <stop offset="1" stop-color="#fff" stop-opacity="0"/>
    </linearGradient>
    <linearGradient id="h" x1="164.199" x2="164.199" y1="9.783" y2="51.191" gradientUnits="userSpaceOnUse">
      <stop stop-color="#fff"/>
      <stop offset="1" stop-color="#fff" stop-opacity="0"/>
    </linearGradient>
    <linearGradient id="i" x1="190.602" x2="190.602" y1="9.783" y2="51.191" gradientUnits="userSpaceOnUse">
      <stop stop-color="#fff"/>
      <stop offset="1" stop-color="#fff" stop-opacity="0"/>
    </linearGradient>
    <linearGradient id="j" x1="247.101" x2="247.101" y1="26.723" y2="217.841" gradientUnits="userSpaceOnUse">
      <stop stop-color="#fff"/>
      <stop offset="1" stop-color="#fff" stop-opacity="0"/>
    </linearGradient>
    <linearGradient id="k" x1="134.067" x2="134.067" y1="26.723" y2="217.841" gradientUnits="userSpaceOnUse">
      <stop stop-color="#fff"/>
      <stop offset="1" stop-color="#fff" stop-opacity="0"/>
    </linearGradient>
    <linearGradient id="l" x1="243.479" x2="279.69" y1="140.998" y2="173.252" gradientUnits="userSpaceOnUse">
      <stop stop-color="#2980BA"/>
      <stop offset="1" stop-color="#9CBAD8"/>
    </linearGradient>
    <linearGradient id="m" x1="49.305" x2="49.305" y1="92.5" y2="127" gradientUnits="userSpaceOnUse">
      <stop stop-color="#fff"/>
      <stop offset="1" stop-color="#fff" stop-opacity="0"/>
    </linearGradient>
    <linearGradient id="n" x1="269.612" x2="211.552" y1="118.502" y2="179.777" gradientUnits="userSpaceOnUse">
      <stop stop-color="#96CFD9"/>
      <stop offset=".78" stop-color="#D6EEF3"/>
      <stop offset="1" stop-color="#96CFD9"/>
    </linearGradient>
    <linearGradient id="o" x1="292.829" x2="227.85" y1="233.29" y2="297.633" gradientUnits="userSpaceOnUse">
      <stop stop-color="#2980BA"/>
      <stop offset="1" stop-color="#9CBAD8"/>
    </linearGradient>
    <linearGradient id="p" x1="199.664" x2="316.949" y1="245.006" y2="245.006" gradientUnits="userSpaceOnUse">
      <stop stop-color="#2980BA"/>
      <stop offset="1" stop-color="#9CBAD8"/>
    </linearGradient>
    <linearGradient id="q" x1="237.318" x2="198.412" y1="157.046" y2="149.9" gradientUnits="userSpaceOnUse">
      <stop stop-color="#2980BA"/>
      <stop offset="1" stop-color="#D7EEF1"/>
    </linearGradient>
    <linearGradient id="r" x1="307.096" x2="307.096" y1="307.975" y2="368.389" gradientUnits="userSpaceOnUse">
      <stop stop-color="#2980BA"/>
      <stop offset=".53" stop-color="#fff"/>
    </linearGradient>
    <linearGradient id="s" x1="250.526" x2="250.526" y1="314.398" y2="347.774" gradientUnits="userSpaceOnUse">
      <stop stop-color="#2980BA"/>
      <stop offset=".64" stop-color="#fff"/>
    </linearGradient>
    <linearGradient id="t" x1="237.849" x2="257.335" y1="106.676" y2="110.22" gradientUnits="userSpaceOnUse">
      <stop stop-color="#D6EEF3"/>
      <stop offset=".28" stop-color="#D4EDF2"/>
      <stop offset=".38" stop-color="#CDEAEF"/>
      <stop offset=".46" stop-color="#C1E4EB"/>
      <stop offset=".52" stop-color="#B0DCE4"/>
      <stop offset=".57" stop-color="#9AD1DB"/>
      <stop offset=".58" stop-color="#96CFD9"/>
      <stop offset=".59" stop-color="#98D0DA"/>
      <stop offset=".69" stop-color="#B3DDE5"/>
      <stop offset=".79" stop-color="#C7E7ED"/>
      <stop offset=".89" stop-color="#D2ECF1"/>
      <stop offset="1" stop-color="#D6EEF3"/>
    </linearGradient>
    <linearGradient id="u" x1="253.14" x2="205.623" y1="117.086" y2="162.783" gradientUnits="userSpaceOnUse">
      <stop stop-color="#F0B22E"/>
      <stop offset=".01" stop-color="#F1B52F"/>
      <stop offset=".06" stop-color="#F4C833"/>
      <stop offset=".11" stop-color="#F5D235"/>
      <stop offset=".17" stop-color="#F6D636"/>
      <stop offset="1" stop-color="#F0B22E"/>
    </linearGradient>
    <linearGradient id="v" x1="302.654" x2="330.755" y1="166.82" y2="166.82" gradientUnits="userSpaceOnUse">
      <stop stop-color="#96CFD9"/>
      <stop offset=".78" stop-color="#D6EEF3"/>
      <stop offset="1" stop-color="#96CFD9"/>
    </linearGradient>
    <linearGradient id="w" x1="197.519" x2="270.398" y1="116.254" y2="191.88" gradientUnits="userSpaceOnUse">
      <stop stop-color="#2980BA"/>
      <stop offset="1" stop-color="#9CBAD8"/>
    </linearGradient>
    <linearGradient id="x" x1="147.47" x2="121.8" y1="151.773" y2="176.509" gradientUnits="userSpaceOnUse">
      <stop stop-color="#2980BA"/>
      <stop offset="1" stop-color="#9AB8D7"/>
    </linearGradient>
    <linearGradient id="y" x1="187.987" x2="132.028" y1="202.656" y2="121.191" gradientUnits="userSpaceOnUse">
      <stop stop-color="#2980BA"/>
      <stop offset="1" stop-color="#9CBAD8"/>
    </linearGradient>
    <linearGradient id="z" x1="151.743" x2="149.373" y1="200.279" y2="120.158" gradientUnits="userSpaceOnUse">
      <stop stop-color="#96D0DA"/>
      <stop offset=".78" stop-color="#D8EEF3"/>
      <stop offset="1" stop-color="#96D0DA"/>
    </linearGradient>
    <linearGradient id="A" x1="155.248" x2="136.455" y1="126.508" y2="126.696" gradientUnits="userSpaceOnUse">
      <stop stop-color="#D8EEF3"/>
      <stop offset=".28" stop-color="#D6EDF2"/>
      <stop offset=".38" stop-color="#CFEAF0"/>
      <stop offset=".46" stop-color="#C3E5EB"/>
      <stop offset=".52" stop-color="#B2DDE5"/>
      <stop offset=".57" stop-color="#9CD3DC"/>
      <stop offset=".58" stop-color="#96D0DA"/>
      <stop offset=".59" stop-color="#9AD2DC"/>
      <stop offset=".69" stop-color="#B5DEE6"/>
      <stop offset=".79" stop-color="#C9E7ED"/>
      <stop offset=".89" stop-color="#D4ECF2"/>
      <stop offset="1" stop-color="#D8EEF3"/>
    </linearGradient>
    <linearGradient id="B" x1="104.514" x2="77.834" y1="294.758" y2="294.758" gradientUnits="userSpaceOnUse">
      <stop stop-color="#E9B096"/>
      <stop offset=".81" stop-color="#F2BF93"/>
    </linearGradient>
    <linearGradient id="C" x1="169.237" x2="151.092" y1="275.99" y2="295.737" gradientUnits="userSpaceOnUse">
      <stop stop-color="#E9B096"/>
      <stop offset=".81" stop-color="#F2BF93"/>
    </linearGradient>
    <linearGradient id="D" x1="110.9" x2="163.691" y1="230.363" y2="282.636" gradientUnits="userSpaceOnUse">
      <stop stop-color="#2980BA"/>
      <stop offset="1" stop-color="#9CBAD8"/>
    </linearGradient>
    <linearGradient id="E" x1="178.753" x2="89.061" y1="240.56" y2="240.56" gradientUnits="userSpaceOnUse">
      <stop stop-color="#2980BA"/>
      <stop offset="1" stop-color="#9CBAD8"/>
    </linearGradient>
    <linearGradient id="F" x1="100.976" x2="74.526" y1="170.951" y2="170.951" gradientUnits="userSpaceOnUse">
      <stop stop-color="#94CDD8"/>
      <stop offset=".78" stop-color="#D7EEF1"/>
      <stop offset="1" stop-color="#94CDD8"/>
    </linearGradient>
    <linearGradient id="G" x1="155.023" x2="183.308" y1="156.016" y2="183.712" gradientUnits="userSpaceOnUse">
      <stop stop-color="#2980BA"/>
      <stop offset="1" stop-color="#9CBAD8"/>
    </linearGradient>
    <linearGradient id="H" x1="179.04" x2="111.601" y1="214.225" y2="116.055" gradientUnits="userSpaceOnUse">
      <stop stop-color="#2980BA"/>
      <stop offset="1" stop-color="#9CBAD8"/>
    </linearGradient>
    <linearGradient id="I" x1="168.883" x2="150.737" y1="325.708" y2="305.961" gradientUnits="userSpaceOnUse">
      <stop stop-color="#E9B096"/>
      <stop offset=".81" stop-color="#F2BF93"/>
    </linearGradient>
    <linearGradient id="J" x1="146.422" x2="146.779" y1="338.712" y2="318.897" gradientUnits="userSpaceOnUse">
      <stop stop-color="#fff"/>
      <stop offset=".02" stop-color="#EFF5FA"/>
      <stop offset=".06" stop-color="#C6DDED"/>
      <stop offset=".11" stop-color="#A0C7E0"/>
      <stop offset=".17" stop-color="#80B3D6"/>
      <stop offset=".23" stop-color="#64A3CD"/>
      <stop offset=".3" stop-color="#4E96C6"/>
      <stop offset=".38" stop-color="#3D8CC1"/>
      <stop offset=".47" stop-color="#3285BD"/>
      <stop offset=".61" stop-color="#2B81BB"/>
      <stop offset="1" stop-color="#2980BA"/>
    </linearGradient>
    <linearGradient id="K" x1="104.514" x2="77.834" y1="324.779" y2="324.779" gradientUnits="userSpaceOnUse">
      <stop stop-color="#E9B096"/>
      <stop offset=".81" stop-color="#F2BF93"/>
    </linearGradient>
    <linearGradient id="L" x1="99.089" x2="99.089" y1="331.413" y2="383.682" gradientUnits="userSpaceOnUse">
      <stop stop-color="#2980BA"/>
      <stop offset=".02" stop-color="#4490C3"/>
      <stop offset=".05" stop-color="#70AAD1"/>
      <stop offset=".08" stop-color="#96C1DD"/>
      <stop offset=".11" stop-color="#B7D4E8"/>
      <stop offset=".15" stop-color="#D1E4F0"/>
      <stop offset=".19" stop-color="#E6F0F7"/>
      <stop offset=".24" stop-color="#F4F8FB"/>
      <stop offset=".29" stop-color="#FCFDFE"/>
      <stop offset=".38" stop-color="#fff"/>
    </linearGradient>
    <filter id="a" width="396.792" height="349.991" x="0" y="0" color-interpolation-filters="sRGB" filterUnits="userSpaceOnUse">
      <feFlood flood-opacity="0" result="BackgroundImageFix"/>
      <feColorMatrix in="SourceAlpha" result="hardAlpha" values="0 0 0 0 0 0 0 0 0 0 0 0 0 0 0 0 0 0 127 0"/>
      <feOffset dy="4"/>
      <feGaussianBlur stdDeviation="2"/>
      <feComposite in2="hardAlpha" operator="out"/>
      <feColorMatrix values="0 0 0 0 0 0 0 0 0 0 0 0 0 0 0 0 0 0 0.25 0"/>
      <feBlend in2="BackgroundImageFix" result="effect1_dropShadow_26_1733"/>
      <feBlend in="SourceGraphic" in2="effect1_dropShadow_26_1733" result="shape"/>
    </filter>
  </defs>
</svg>